<svg width="32" height="32" viewBox="0 0 32 32" fill="none" xmlns="http://www.w3.org/2000/svg">
<g clip-path="url(#clip0_37_2203)">
<circle cx="16" cy="16" r="16" fill="white"/>
<path d="M23.5833 14.0413H22.695L20.8533 9.05048C20.7009 8.63896 20.4239 8.28336 20.0597 8.03166C19.6955 7.77995 19.2616 7.64424 18.8167 7.64282H17.0833C16.4875 7.64282 16 8.12271 16 8.70923C16 9.29575 16.4875 9.77564 17.0833 9.77564H18.8167L20.3983 14.0413H15.1875L14.7975 12.9749H14.895C15.4908 12.9749 15.9783 12.495 15.9783 11.9085C15.9783 11.3219 15.4908 10.842 14.895 10.842H11.6667C11.0708 10.842 10.5833 11.3219 10.5833 11.9085C10.5833 12.495 11.0708 12.9749 11.6667 12.9749H12.4792L14.4508 18.3069H13.725C13.2483 15.9288 11.2225 14.1692 8.6875 14.0519C5.65417 13.9026 3 16.3874 3 19.3733C3 22.3593 5.38333 24.7053 8.41667 24.7053C11.0817 24.7053 13.2375 22.9031 13.725 20.4397H18.275C18.7517 22.8178 20.7775 24.5774 23.3125 24.6947C26.3458 24.8333 29 22.3593 29 19.3626C29 16.3874 26.6167 14.0413 23.5833 14.0413ZM9.5 20.4397H11.4717C11.0167 21.7514 9.73833 22.6578 8.2 22.5618C6.58583 22.4659 5.2425 21.1222 5.16667 19.5226C5.09083 17.6564 6.5425 16.174 8.41667 16.174C9.8575 16.174 11.0383 17.0592 11.4717 18.3069H9.5C8.90417 18.3069 8.41667 18.7868 8.41667 19.3733C8.41667 19.9598 8.90417 20.4397 9.5 20.4397ZM18.275 18.3069H16.7583L15.9675 16.174H19.25C18.7733 16.7926 18.4267 17.5071 18.275 18.3069ZM23.4533 22.5725C21.785 22.5085 20.3767 21.1116 20.3333 19.4586C20.3117 18.4349 20.7558 17.5391 21.4708 16.9419L22.1425 18.7548C22.3483 19.3093 22.9658 19.5972 23.5292 19.3946C24.0925 19.192 24.385 18.5842 24.1792 18.0296L23.4967 16.1848L23.5075 16.174C23.9419 16.1595 24.3747 16.2317 24.7799 16.3864C25.1851 16.541 25.5543 16.7749 25.865 17.0739C26.1759 17.373 26.4219 17.7308 26.5884 18.126C26.7548 18.5212 26.8381 18.9455 26.8333 19.3733C26.8333 21.2075 25.3383 22.6365 23.4533 22.5725Z" fill="url(#paint0_linear_37_2203)"/>
</g>
<defs>
<linearGradient id="paint0_linear_37_2203" x1="16" y1="7.64282" x2="16" y2="24.7053" gradientUnits="userSpaceOnUse">
<stop stop-color="#FFB60D"/>
<stop offset="1" stop-color="#E59317"/>
</linearGradient>
<clipPath id="clip0_37_2203">
<rect width="32" height="32" fill="white"/>
</clipPath>
</defs>
</svg>
